<svg xmlns="http://www.w3.org/2000/svg" version="1.1" xmlns:xlink="http://www.w3.org/1999/xlink" xmlns:svgjs="http://svgjs.dev/svgjs" width="560" height="800" preserveAspectRatio="none" viewBox="0 0 560 800"><g mask="url(&quot;#SvgjsMask1093&quot;)" fill="none"><rect width="560" height="800" x="0" y="0" fill="rgba(199, 219, 240, 1)"></rect><path d="M632.9277561360335 506.7044953614742L472.3107747734432 486.98320983131856 452.5894892432876 647.6001911939088 613.2064706058778 667.3214767240645z" fill="rgba(28, 83, 142, 0.4)" class="triangle-float1"></path><path d="M532.8180595541146 724.3867520229185L598.6265539491842 656.2400611719071 530.4798630981728 590.4315667768375 464.6713687031032 658.5782576278489z" fill="rgba(28, 83, 142, 0.4)" class="triangle-float2"></path><path d="M448.1855278845182 302.8362239336421L389.0848524507804 393.8432833718322 480.09191188897046 452.94395880557 539.1925873227083 361.9368993673799z" fill="rgba(28, 83, 142, 0.4)" class="triangle-float2"></path><path d="M159.3119018013724 260.94080582102885L26.79184080882655 187.48373651378768-46.66522849841462 320.0037975063335 85.85483249413122 393.4608668135747z" fill="rgba(28, 83, 142, 0.4)" class="triangle-float1"></path><path d="M557.6912943394611 104.7080589522643L506.1052177525835 28.22855528585056 429.62571408616975 79.81463187272823 481.2117906730474 156.29413553914196z" fill="rgba(28, 83, 142, 0.4)" class="triangle-float3"></path><path d="M124.57942747023276-67.17909320001709L64.13320454174779 2.356331992750242 133.66862973451512 62.80255492123521 194.11485266300008-6.732870271532121z" fill="rgba(28, 83, 142, 0.4)" class="triangle-float1"></path><path d="M17.815418282801673 877.0187461443024L80.55845020262117 787.4124101710553-9.047885770625982 724.6693782512358-71.79091769044548 814.275714224483z" fill="rgba(28, 83, 142, 0.4)" class="triangle-float3"></path></g><defs><mask id="SvgjsMask1093"><rect width="560" height="800" fill="#ffffff"></rect></mask></defs></svg>