<svg width="150" height="42" viewBox="0 0 150 42" fill="none" xmlns="http://www.w3.org/2000/svg">
<path fill-rule="evenodd" clip-rule="evenodd" d="M4.65917 22.1036C2.70792 22.7387 1.73181 23.4676 0.915833 24.8996C-1.07122 28.3869 0.759999 31.5734 5.82494 33.4416C7.77419 34.1607 9.14222 35.3315 9.14222 36.2808C9.14222 36.5346 8.77584 37.1033 8.32823 37.5447C7.66113 38.203 7.18534 38.3476 5.68734 38.3476C4.68271 38.3476 3.16946 38.1164 2.3253 37.8335C1.48115 37.5509 0.7474 37.3668 0.694681 37.4247C0.52459 37.6118 -0.0984149 40.7884 0.0133215 40.8986C0.0726711 40.9571 0.920143 41.2148 1.89659 41.4709C8.01557 43.0775 13.4525 40.5006 13.4525 35.9937C13.4525 33.1509 12.0102 31.4583 8.44859 30.1218C6.2752 29.3062 4.50035 27.9526 4.50035 27.1106C4.50035 26.83 4.83622 26.2878 5.24636 25.9062C5.89357 25.3038 6.27785 25.2325 8.14753 25.3682C9.33286 25.4542 10.6273 25.6282 11.0242 25.7548C11.6495 25.9539 11.7931 25.8166 12.1001 24.7263C12.5881 22.9918 12.5547 22.7249 11.7974 22.3253C10.7195 21.756 6.1618 21.6147 4.65917 22.1036ZM37.4437 21.9816C34.7063 22.6255 32.6831 24.9856 32.6831 27.535C32.6831 30.1744 34.4331 32.0086 38.318 33.4416C40.2673 34.1607 41.6353 35.3315 41.6353 36.2808C41.6353 36.5346 41.2689 37.1033 40.8213 37.5447C40.1399 38.2171 39.6953 38.3453 38.0859 38.3332C37.0292 38.3253 35.5697 38.1098 34.8426 37.8547C34.1158 37.5993 33.4321 37.4953 33.3237 37.6239C33.0631 37.9322 32.2756 40.6726 32.4116 40.7985C32.4696 40.8525 33.3277 41.1324 34.3184 41.4205C40.2384 43.1436 45.9403 40.5487 45.9443 36.1297C45.9469 33.1283 44.7026 31.7349 40.2281 29.7277C37.0756 28.3137 36.4288 27.3777 37.6847 26.0471C38.4341 25.2531 38.634 25.209 40.8064 25.3574C42.0829 25.4447 43.3707 25.6161 43.6681 25.7384C44.0716 25.9045 44.303 25.6946 44.5799 24.911C45.3143 22.8332 45.1253 22.4149 43.2769 22.0238C41.4082 21.6285 39.0183 21.6111 37.4437 21.9816ZM89.4903 21.9833C87.7416 22.394 85.5755 23.8394 84.5755 25.2626C83.5819 26.6766 82.3571 29.8114 82.6286 30.2447C82.7165 30.3847 83.747 30.4991 84.9191 30.4991H87.0497L87.4349 28.9903C88.5079 24.7874 93.0702 23.7609 95.4998 27.1753C96.4554 28.5181 96.5088 28.761 96.5088 31.7536C96.5088 34.3259 96.3855 35.1205 95.8457 36.0241C94.846 37.6984 93.5456 38.5111 91.8669 38.5111C89.3467 38.5111 87.5394 36.5738 87.167 33.474C86.9409 31.5904 86.8676 31.5603 84.0686 32.1977L82.3531 32.5881L82.5659 33.9008C83.5371 39.8898 88.8766 43.1717 94.8749 41.4663C97.7299 40.6543 99.9875 38.3162 100.81 35.319C101.579 32.5168 101.392 28.9193 100.369 26.8349C98.4348 22.894 94.0115 20.9211 89.4903 21.9833ZM15.1103 22.2583C15.1103 22.4179 16.4525 25.0366 18.0931 28.0772L21.0758 33.6058L21.0771 37.6118L21.0784 41.6177H23.2336H25.3888L25.3931 37.6118L25.3974 33.6058L28.5429 28.089C30.273 25.0546 31.6884 22.4424 31.6884 22.2844C31.6884 22.1262 30.6616 21.9967 29.4069 21.9967H27.1251L25.9083 24.8581C25.2392 26.432 24.4504 28.2761 24.156 28.9566C23.8612 29.6371 23.5038 30.0786 23.3612 29.9376C23.2187 29.7967 22.3795 27.9893 21.4965 25.9209L19.8911 22.1602L17.5009 22.064C16.1859 22.0114 15.1103 22.0987 15.1103 22.2583ZM50.0072 22.2141L48.9296 22.3652V31.9913V41.6177H51.0848H53.24V38.184V34.7504H54.6624C55.4445 34.7504 56.9551 34.5267 58.0188 34.2536C61.5045 33.3579 62.8536 31.8876 63.0877 28.73C63.2926 25.965 62.3304 24.1314 60.0847 23.0062C58.6948 22.31 57.9687 22.1903 54.7797 22.1314C52.7476 22.0941 50.5997 22.1311 50.0072 22.2141ZM67.2485 22.2145L66.1709 22.3652V28.192V34.0191L69.5694 32.9573C71.4384 32.3733 74.3658 31.63 76.074 31.3056C78.9035 30.7676 79.2354 30.6257 79.8027 29.7077C81.2901 27.3025 80.0179 24.0088 77.1124 22.7416C75.9453 22.2325 69.5604 21.8914 67.2485 22.2145ZM105.958 31.9707V41.6177H112.092H118.226V39.9928V38.3678L114.164 38.2759L110.103 38.184V35.7314V33.2788L113.667 33.1859L117.231 33.093V31.4802V29.8673L113.667 29.7745L110.103 29.6816L110.001 27.918C109.945 26.948 110.052 26.0039 110.238 25.8198C110.437 25.6243 112.029 25.5151 114.07 25.5569L117.563 25.6289V23.9764V22.3237H111.761H105.958V31.9707ZM120.298 22.5284C119.98 22.6641 119.884 24.9088 119.884 32.1614V41.6177H121.851C124.195 41.6177 124.152 41.6988 124.07 37.4312C124.037 35.7579 124.112 34.2284 124.235 34.0316C124.574 33.4913 127.173 33.9456 127.912 34.6745C128.261 35.0195 128.948 36.686 129.439 38.378L130.329 41.4542L132.441 41.5526L134.553 41.6511L134.33 40.7351C133.177 35.9894 132.644 34.5653 131.589 33.4135C130.544 32.2732 130.511 32.1728 131.122 31.9815C131.484 31.8683 132.236 31.2627 132.794 30.6355C133.668 29.6541 133.81 29.2404 133.81 27.6649C133.81 25.4179 132.984 23.9519 131.235 23.0941C130.232 22.6026 129.114 22.4744 125.355 22.4192C122.802 22.3819 120.526 22.431 120.298 22.5284ZM136.545 22.5402C136.227 22.6667 136.13 24.9026 136.13 32.1614V41.6177H138.109H140.087L140.181 38.1334L140.275 34.649L142.185 34.5479C145.022 34.3975 146.632 33.8645 148.042 32.6077C150.304 30.592 150.669 26.7515 148.806 24.5677C147.263 22.759 145.788 22.3355 141.104 22.3567C138.824 22.3669 136.773 22.4496 136.545 22.5402ZM129.085 26.1191C130.129 27.2662 130.086 28.9893 128.987 29.9936C128.386 30.5423 127.66 30.7974 126.468 30.8775C125.547 30.939 124.658 30.9072 124.494 30.8065C124.328 30.7061 124.126 29.4553 124.044 28.0269C123.903 25.5749 123.936 25.4179 124.625 25.2054C126.01 24.7786 128.289 25.2456 129.085 26.1191ZM57.9074 26.2227C60.152 28.4366 58.0993 31.7006 54.6408 31.4177L53.4057 31.3167L53.3079 28.7293C53.2542 27.3065 53.2867 25.9454 53.3805 25.7044C53.4919 25.4179 54.1355 25.2668 55.2446 25.2668C56.6743 25.2668 57.0891 25.4156 57.9074 26.2227ZM74.3903 25.4765C74.8081 25.5867 75.377 26.1106 75.6545 26.6403C76.8051 28.8346 75.0955 30.8226 72.0561 30.8248L70.4812 30.8261V28.0465V25.2668L72.0561 25.2714C72.9225 25.2737 73.9729 25.3659 74.3903 25.4765ZM144.835 25.9157C145.882 26.7283 146.212 27.9621 145.75 29.3415C145.277 30.7558 143.727 31.5662 141.767 31.4246L140.275 31.3167L140.179 28.2918L140.084 25.2668H142.042C143.491 25.2668 144.215 25.4349 144.835 25.9157ZM80.5938 31.3765C75.3701 32.0342 68.073 33.9469 65.1215 35.4319L63.8499 36.0718V39.0359V42L65.9222 40.2135C70.6257 36.1591 77.0395 33.0008 83.5779 31.5194L84.9041 31.2189L83.2463 31.2349C82.3345 31.2437 81.1409 31.3075 80.5938 31.3765ZM76.6161 34.4783C75.7049 34.8367 74.9158 35.1729 74.8624 35.2255C74.7835 35.3033 75.4871 38.0369 76.3604 41.0454C76.4984 41.52 76.9208 41.6177 78.8312 41.6177C80.9801 41.6177 81.1217 41.5739 80.9267 40.9679C80.8117 40.6105 80.3614 39.0408 79.926 37.4803C78.9009 33.8049 78.7274 33.6477 76.6161 34.4783ZM68.3343 39.2469C65.6493 41.3875 65.6457 41.6177 68.2985 41.6177H70.4812V39.6556C70.4812 38.5765 70.4364 37.6935 70.3817 37.6935C70.3273 37.6935 69.4059 38.3924 68.3343 39.2469Z" fill="#0252A7"/>
<path fill-rule="evenodd" clip-rule="evenodd" d="M105.958 31.9707V41.6178H112.092H118.226V39.9928V38.3679L114.164 38.276L110.103 38.1841V35.7315V33.2788L113.667 33.1859L117.231 33.0931V31.4802V29.8674L113.667 29.7745L110.103 29.6816L110.001 27.918C109.945 26.9481 110.052 26.004 110.238 25.8199C110.437 25.6243 112.028 25.5151 114.07 25.557L117.563 25.6289V23.9765V22.3237H111.761H105.958V31.9707ZM120.298 22.5284C119.98 22.6642 119.884 24.9088 119.884 32.1614V41.6178H121.851C124.195 41.6178 124.152 41.6989 124.069 37.4313C124.037 35.7579 124.112 34.2285 124.235 34.0316C124.573 33.4914 127.173 33.9456 127.912 34.6745C128.261 35.0195 128.948 36.686 129.438 38.378L130.329 41.4543L132.441 41.5527L134.553 41.6511L134.33 40.7351C133.177 35.9895 132.644 34.5653 131.589 33.4135C130.544 32.2732 130.511 32.1728 131.122 31.9815C131.484 31.8684 132.236 31.2628 132.794 30.6355C133.668 29.6542 133.809 29.2405 133.809 27.6649C133.809 25.418 132.984 23.9519 131.235 23.0942C130.232 22.6027 129.114 22.4745 125.355 22.4192C122.802 22.3819 120.526 22.431 120.298 22.5284ZM136.545 22.5402C136.227 22.6668 136.13 24.9026 136.13 32.1614V41.6178H138.108H140.087L140.181 38.1334L140.275 34.649L142.185 34.548C145.022 34.3976 146.632 33.8645 148.042 32.6078C150.304 30.592 150.669 26.7515 148.806 24.5677C147.263 22.759 145.788 22.3355 141.104 22.3568C138.824 22.3669 136.773 22.4496 136.545 22.5402ZM129.085 26.1191C130.129 27.2663 130.086 28.9893 128.987 29.9936C128.386 30.5423 127.66 30.7974 126.468 30.8775C125.547 30.939 124.658 30.9073 124.494 30.8066C124.328 30.7062 124.126 29.4553 124.044 28.0269C123.903 25.5749 123.936 25.418 124.625 25.2054C126.01 24.7787 128.289 25.2456 129.085 26.1191ZM144.835 25.9157C145.882 26.7283 146.212 27.9622 145.75 29.3415C145.277 30.7559 143.727 31.5662 141.767 31.4246L140.275 31.3167L140.179 28.2918L140.084 25.2669H142.041C143.491 25.2669 144.215 25.435 144.835 25.9157Z" fill="#00A551"/>
<path fill-rule="evenodd" clip-rule="evenodd" d="M80.5937 31.3766C75.37 32.0343 68.073 33.947 65.1214 35.432L63.8499 36.0719V39.036V42.0001L65.9221 40.2136C70.6257 36.1593 77.0394 33.0009 83.5778 31.5195L84.904 31.219L83.2462 31.235C82.3344 31.2439 81.1408 31.3076 80.5937 31.3766Z" fill="#00A551"/>
<path d="M41.606 1.2C42.5113 1.2 43.2627 1.50333 43.86 2.11C44.4667 2.70733 44.77 3.454 44.77 4.35C44.77 5.23667 44.4667 5.98333 43.86 6.59C43.2627 7.19667 42.5113 7.5 41.606 7.5H39.352V11H38.05V1.2H41.606ZM41.606 6.282C42.1473 6.282 42.5953 6.1 42.95 5.736C43.3047 5.36267 43.482 4.90067 43.482 4.35C43.482 3.79 43.3047 3.328 42.95 2.964C42.5953 2.6 42.1473 2.418 41.606 2.418H39.352V6.282H41.606ZM51.5566 10.118C50.8379 10.8273 49.9653 11.182 48.9386 11.182C47.9119 11.182 47.0393 10.8273 46.3206 10.118C45.6113 9.40867 45.2566 8.536 45.2566 7.5C45.2566 6.464 45.6113 5.59133 46.3206 4.882C47.0393 4.17267 47.9119 3.818 48.9386 3.818C49.9653 3.818 50.8379 4.17267 51.5566 4.882C52.2753 5.59133 52.6346 6.464 52.6346 7.5C52.6346 8.536 52.2753 9.40867 51.5566 10.118ZM48.9386 9.992C49.6386 9.992 50.2266 9.754 50.7026 9.278C51.1786 8.802 51.4166 8.20933 51.4166 7.5C51.4166 6.79067 51.1786 6.198 50.7026 5.722C50.2266 5.246 49.6386 5.008 48.9386 5.008C48.2479 5.008 47.6646 5.246 47.1886 5.722C46.7126 6.198 46.4746 6.79067 46.4746 7.5C46.4746 8.20933 46.7126 8.802 47.1886 9.278C47.6646 9.754 48.2479 9.992 48.9386 9.992ZM62.043 4H63.317L61.147 11H59.901L58.263 5.82L56.625 11H55.379L53.209 4H54.483L56.023 9.32L57.675 4H58.851L60.503 9.334L62.043 4ZM65.151 8.06C65.2724 8.68533 65.557 9.17067 66.005 9.516C66.4624 9.86133 67.0224 10.034 67.685 10.034C68.609 10.034 69.281 9.69333 69.701 9.012L70.737 9.6C70.0557 10.6547 69.029 11.182 67.657 11.182C66.5464 11.182 65.641 10.8367 64.941 10.146C64.2504 9.446 63.905 8.564 63.905 7.5C63.905 6.44533 64.2457 5.568 64.927 4.868C65.6084 4.168 66.4904 3.818 67.573 3.818C68.5997 3.818 69.435 4.182 70.079 4.91C70.7324 5.62867 71.059 6.49667 71.059 7.514C71.059 7.69133 71.045 7.87333 71.017 8.06H65.151ZM67.573 4.966C66.9197 4.966 66.3784 5.15267 65.949 5.526C65.5197 5.89 65.2537 6.38 65.151 6.996H69.827C69.7244 6.33333 69.463 5.82933 69.043 5.484C68.623 5.13867 68.133 4.966 67.573 4.966ZM73.6772 5.176C74.0785 4.308 74.8065 3.874 75.8612 3.874V5.148C75.2638 5.12 74.7505 5.27867 74.3212 5.624C73.8918 5.96933 73.6772 6.52467 73.6772 7.29V11H72.4592V4H73.6772V5.176ZM77.5241 8.06C77.6454 8.68533 77.9301 9.17067 78.3781 9.516C78.8354 9.86133 79.3954 10.034 80.0581 10.034C80.9821 10.034 81.6541 9.69333 82.0741 9.012L83.1101 9.6C82.4288 10.6547 81.4021 11.182 80.0301 11.182C78.9194 11.182 78.0141 10.8367 77.3141 10.146C76.6234 9.446 76.2781 8.564 76.2781 7.5C76.2781 6.44533 76.6188 5.568 77.3001 4.868C77.9814 4.168 78.8634 3.818 79.9461 3.818C80.9728 3.818 81.8081 4.182 82.4521 4.91C83.1054 5.62867 83.4321 6.49667 83.4321 7.514C83.4321 7.69133 83.4181 7.87333 83.3901 8.06H77.5241ZM79.9461 4.966C79.2928 4.966 78.7514 5.15267 78.3221 5.526C77.8928 5.89 77.6268 6.38 77.5241 6.996H82.2001C82.0974 6.33333 81.8361 5.82933 81.4161 5.484C80.9961 5.13867 80.5061 4.966 79.9461 4.966ZM90.6145 1.2H91.8325V11H90.6145V9.796C90.0079 10.72 89.1259 11.182 87.9685 11.182C86.9885 11.182 86.1532 10.8273 85.4625 10.118C84.7719 9.39933 84.4265 8.52667 84.4265 7.5C84.4265 6.47333 84.7719 5.60533 85.4625 4.896C86.1532 4.17733 86.9885 3.818 87.9685 3.818C89.1259 3.818 90.0079 4.28 90.6145 5.204V1.2ZM88.1225 10.006C88.8319 10.006 89.4245 9.768 89.9005 9.292C90.3765 8.80667 90.6145 8.20933 90.6145 7.5C90.6145 6.79067 90.3765 6.198 89.9005 5.722C89.4245 5.23667 88.8319 4.994 88.1225 4.994C87.4225 4.994 86.8345 5.23667 86.3585 5.722C85.8825 6.198 85.6445 6.79067 85.6445 7.5C85.6445 8.20933 85.8825 8.80667 86.3585 9.292C86.8345 9.768 87.4225 10.006 88.1225 10.006ZM102.904 5.918C103.352 6.13267 103.707 6.44067 103.968 6.842C104.239 7.24333 104.374 7.70533 104.374 8.228C104.374 9.012 104.099 9.67 103.548 10.202C102.997 10.734 102.325 11 101.532 11H97.3039V1.2H101.224C101.989 1.2 102.638 1.45667 103.17 1.97C103.702 2.48333 103.968 3.118 103.968 3.874C103.968 4.742 103.613 5.42333 102.904 5.918ZM101.224 2.418H98.6059V5.414H101.224C101.635 5.414 101.98 5.26933 102.26 4.98C102.54 4.69067 102.68 4.336 102.68 3.916C102.68 3.50533 102.535 3.15533 102.246 2.866C101.966 2.56733 101.625 2.418 101.224 2.418ZM101.532 9.782C101.971 9.782 102.339 9.628 102.638 9.32C102.937 9.012 103.086 8.634 103.086 8.186C103.086 7.74733 102.932 7.374 102.624 7.066C102.325 6.758 101.961 6.604 101.532 6.604H98.6059V9.782H101.532ZM110.472 4H111.774L108.918 11.434C108.619 12.2273 108.199 12.8293 107.658 13.24C107.126 13.66 106.51 13.8467 105.81 13.8V12.666C106.669 12.7313 107.299 12.2553 107.7 11.238L107.826 10.972L104.774 4H106.076L108.456 9.488L110.472 4Z" fill="#021C38"/>
</svg>
