<svg width="150" height="21" viewBox="0 0 150 21" fill="none" xmlns="http://www.w3.org/2000/svg">
<path fill-rule="evenodd" clip-rule="evenodd" d="M4.65917 0.40512C2.70792 1.04019 1.73181 1.76912 0.915833 3.20113C-1.07122 6.68844 0.759999 9.87489 5.82494 11.7431C7.77419 12.4623 9.14222 13.633 9.14222 14.5823C9.14222 14.8361 8.77584 15.4048 8.32823 15.8462C7.66113 16.5045 7.18534 16.6491 5.68734 16.6491C4.68271 16.6491 3.16946 16.4179 2.3253 16.135C1.48115 15.8525 0.7474 15.6683 0.694681 15.7262C0.52459 15.9133 -0.0984149 19.0899 0.0133215 19.2001C0.0726711 19.2587 0.920143 19.5164 1.89659 19.7724C8.01557 21.379 13.4525 18.8021 13.4525 14.2952C13.4525 11.4524 12.0102 9.75979 8.44859 8.42327C6.2752 7.60769 4.50035 6.25416 4.50035 5.41209C4.50035 5.13151 4.83622 4.58931 5.24636 4.20768C5.89357 3.60531 6.27785 3.53402 8.14753 3.66974C9.33286 3.75574 10.6273 3.92972 11.0242 4.05627C11.6495 4.25543 11.7931 4.11807 12.1001 3.0278C12.5881 1.2933 12.5547 1.02646 11.7974 0.626841C10.7195 0.0575029 6.1618 -0.0837717 4.65917 0.40512ZM37.4437 0.283147C34.7063 0.927044 32.6831 3.28713 32.6831 5.83656C32.6831 8.47592 34.4331 10.3102 38.318 11.7431C40.2673 12.4623 41.6353 13.633 41.6353 14.5823C41.6353 14.8361 41.2689 15.4048 40.8213 15.8462C40.1399 16.5186 39.6953 16.6468 38.0859 16.6347C37.0292 16.6268 35.5697 16.4113 34.8426 16.1563C34.1158 15.9009 33.4321 15.7969 33.3237 15.9254C33.0631 16.2337 32.2756 18.9742 32.4116 19.1001C32.4696 19.154 33.3277 19.4339 34.3184 19.7221C40.2384 21.4451 45.9403 18.8502 45.9443 14.4312C45.9469 11.4299 44.7026 10.0364 40.2281 8.02921C37.0756 6.61518 36.4288 5.67926 37.6847 4.34862C38.4341 3.55462 38.634 3.51048 40.8064 3.65895C42.0829 3.74626 43.3707 3.91761 43.6681 4.03992C44.0716 4.20604 44.303 3.9961 44.5799 3.21256C45.3143 1.13469 45.1253 0.716444 43.2769 0.325331C41.4082 -0.070033 39.0183 -0.0873643 37.4437 0.283147ZM89.4903 0.284783C87.7416 0.695517 85.5755 2.14093 84.5755 3.56411C83.5819 4.97813 82.3571 8.11292 82.6286 8.54622C82.7165 8.68618 83.747 8.80064 84.9191 8.80064H87.0497L87.4349 7.29178C88.5079 3.08895 93.0702 2.06245 95.4998 5.47684C96.4554 6.81957 96.5088 7.06254 96.5088 10.0551C96.5088 12.6274 96.3855 13.4221 95.8457 14.3256C94.846 15.9999 93.5456 16.8126 91.8669 16.8126C89.3467 16.8126 87.5394 14.8753 87.167 11.7755C86.9409 9.8919 86.8676 9.86181 84.0686 10.4992L82.3531 10.8896L82.5659 12.2023C83.5371 18.1913 88.8766 21.4732 94.8749 19.7678C97.7299 18.9558 99.9875 16.6177 100.81 13.6206C101.579 10.8183 101.392 7.22083 100.369 5.13642C98.4348 1.19553 94.0115 -0.77737 89.4903 0.284783ZM15.1103 0.559796C15.1103 0.719381 16.4525 3.33814 18.0931 6.37875L21.0758 11.9073L21.0771 15.9133L21.0784 19.9192H23.2336H25.3888L25.3931 15.9133L25.3974 11.9073L28.5429 6.39053C30.273 3.35613 31.6884 0.743913 31.6884 0.585963C31.6884 0.427687 30.6616 0.298186 29.4069 0.298186H27.1251L25.9083 3.15959C25.2392 4.73353 24.4504 6.57757 24.156 7.2581C23.8612 7.93862 23.5038 8.3801 23.3612 8.23915C23.2187 8.09821 22.3795 6.29078 21.4965 4.2224L19.8911 0.461695L17.5009 0.36555C16.1859 0.3129 15.1103 0.400212 15.1103 0.559796ZM50.0072 0.515656L48.9296 0.66674V10.2928V19.9192H51.0848H53.24V16.4856V13.0519H54.6624C55.4445 13.0519 56.9551 12.8282 58.0188 12.5551C61.5045 11.6594 62.8536 10.1892 63.0877 7.03148C63.2926 4.26654 62.3304 2.43296 60.0847 1.30769C58.6948 0.611471 57.9687 0.491776 54.7797 0.432913C52.7476 0.395633 50.5997 0.432593 50.0072 0.515656ZM67.2485 0.515975L66.1709 0.66674V6.49354V12.3207L69.5694 11.2588C71.4384 10.6748 74.3658 9.93147 76.074 9.60707C78.9035 9.06913 79.2354 8.92719 79.8027 8.00926C81.2901 5.60404 80.0179 2.31033 77.1124 1.04314C75.9453 0.533971 69.5604 0.192882 67.2485 0.515975ZM105.958 10.2722V19.9192H112.092H118.226V18.2943V16.6693L114.164 16.5775L110.103 16.4856V14.0329V11.5803L113.667 11.4874L117.231 11.3945V9.7817V8.16884L113.667 8.07597L110.103 7.9831L110.001 6.21949C109.945 5.24956 110.052 4.30546 110.238 4.12135C110.437 3.9258 112.029 3.81657 114.07 3.85842L117.563 3.93037V2.27795V0.625204H111.761H105.958V10.2722ZM120.298 0.829919C119.98 0.965631 119.884 3.21028 119.884 10.4629V19.9192H121.851C124.195 19.9192 124.152 20.0003 124.07 15.7328C124.037 14.0594 124.112 12.53 124.235 12.3331C124.574 11.7929 127.173 12.2471 127.912 12.976C128.261 13.321 128.948 14.9875 129.439 16.6795L130.329 19.7557L132.441 19.8542L134.553 19.9526L134.33 19.0366C133.177 14.2909 132.644 12.8668 131.589 11.715C130.544 10.5747 130.511 10.4743 131.122 10.283C131.484 10.1699 132.236 9.56423 132.794 8.93701C133.668 7.95563 133.81 7.54196 133.81 5.96638C133.81 3.71945 132.984 2.25342 131.235 1.39565C130.232 0.904146 129.114 0.775956 125.355 0.72069C122.802 0.68341 120.526 0.732468 120.298 0.829919ZM136.545 0.841685C136.227 0.968241 136.13 3.20407 136.13 10.4629V19.9192H138.109H140.087L140.181 16.4349L140.275 12.9505L142.185 12.8495C145.022 12.699 146.632 12.166 148.042 10.9093C150.304 8.89352 150.669 5.05302 148.806 2.8692C147.263 1.06046 145.788 0.636981 141.104 0.658237C138.824 0.668374 136.773 0.751101 136.545 0.841685ZM129.085 4.42057C130.129 5.56774 130.086 7.29081 128.987 8.29508C128.386 8.84381 127.66 9.09889 126.468 9.17901C125.547 9.24049 124.658 9.20876 124.494 9.10804C124.328 9.00765 124.126 7.7568 124.044 6.32839C123.903 3.87641 123.936 3.71945 124.625 3.50689C126.01 3.08013 128.289 3.5471 129.085 4.42057ZM57.9074 4.52424C60.152 6.73814 58.0993 10.0021 54.6408 9.71923L53.4057 9.61819L53.3079 7.03083C53.2542 5.60797 53.2867 4.24693 53.3805 4.00592C53.4919 3.71945 54.1355 3.56836 55.2446 3.56836C56.6743 3.56836 57.0891 3.71716 57.9074 4.52424ZM74.3903 3.77798C74.8081 3.88818 75.377 4.41207 75.6545 4.94184C76.8051 7.13613 75.0955 9.12406 72.0561 9.12635L70.4812 9.12766V6.34801V3.56836L72.0561 3.57294C72.9225 3.57523 73.9729 3.66745 74.3903 3.77798ZM144.835 4.21717C145.882 5.02981 146.212 6.26364 145.75 7.643C145.277 9.05735 143.727 9.8677 141.767 9.7261L140.275 9.61819L140.179 6.59327L140.084 3.56836H142.042C143.491 3.56836 144.215 3.73645 144.835 4.21717ZM80.5938 9.67804C75.3701 10.3357 68.073 12.2484 65.1215 13.7334L63.8499 14.3733V17.3374V20.3015L65.9222 18.515C70.6257 14.4607 77.0395 11.3023 83.5779 9.82094L84.9041 9.5204L83.2463 9.53643C82.3345 9.54526 81.1409 9.60904 80.5938 9.67804ZM76.6161 12.7798C75.7049 13.1382 74.9158 13.4744 74.8624 13.527C74.7835 13.6049 75.4871 16.3384 76.3604 19.347C76.4984 19.8215 76.9208 19.9192 78.8312 19.9192C80.9801 19.9192 81.1217 19.8754 80.9267 19.2695C80.8117 18.912 80.3614 17.3423 79.926 15.7818C78.9009 12.1065 78.7274 11.9492 76.6161 12.7798ZM68.3343 17.5484C65.6493 19.689 65.6457 19.9192 68.2985 19.9192H70.4812V17.9571C70.4812 16.878 70.4364 15.995 70.3817 15.995C70.3273 15.995 69.4059 16.6939 68.3343 17.5484Z" fill="#0252A7"/>
<path fill-rule="evenodd" clip-rule="evenodd" d="M105.958 10.2723V19.9193H112.092H118.226V18.2943V16.6694L114.164 16.5775L110.103 16.4856V14.033V11.5803L113.667 11.4875L117.231 11.3946V9.78174V8.16888L113.667 8.07601L110.103 7.98314L110.001 6.21953C109.945 5.2496 110.052 4.3055 110.238 4.12139C110.437 3.92584 112.028 3.81661 114.07 3.85846L117.563 3.93041V2.27799V0.625244H111.761H105.958V10.2723ZM120.298 0.829959C119.98 0.965672 119.884 3.21032 119.884 10.4629V19.9193H121.851C124.195 19.9193 124.152 20.0004 124.069 15.7328C124.037 14.0595 124.112 12.53 124.235 12.3331C124.573 11.7929 127.173 12.2471 127.912 12.976C128.261 13.321 128.948 14.9875 129.438 16.6795L130.329 19.7558L132.441 19.8542L134.553 19.9526L134.33 19.0367C133.177 14.291 132.644 12.8668 131.589 11.7151C130.544 10.5747 130.511 10.4744 131.122 10.2831C131.484 10.1699 132.236 9.56427 132.794 8.93705C133.668 7.95567 133.809 7.542 133.809 5.96642C133.809 3.71949 132.984 2.25346 131.235 1.39569C130.232 0.904186 129.114 0.775997 125.355 0.720731C122.802 0.683451 120.526 0.732508 120.298 0.829959ZM136.545 0.841726C136.227 0.968281 136.13 3.20411 136.13 10.4629V19.9193H138.108H140.087L140.181 16.4349L140.275 12.9505L142.185 12.8495C145.022 12.6991 146.632 12.166 148.042 10.9093C150.304 8.89356 150.669 5.05306 148.806 2.86924C147.263 1.0605 145.788 0.637021 141.104 0.658277C138.824 0.668415 136.773 0.751142 136.545 0.841726ZM129.085 4.42061C130.129 5.56778 130.086 7.29085 128.987 8.29512C128.386 8.84385 127.66 9.09893 126.468 9.17905C125.547 9.24053 124.658 9.2088 124.494 9.10808C124.328 9.00769 124.126 7.75684 124.044 6.32843C123.903 3.87645 123.936 3.71949 124.625 3.50693C126.01 3.08017 128.289 3.54714 129.085 4.42061ZM144.835 4.21721C145.882 5.02985 146.212 6.26368 145.75 7.64304C145.277 9.05739 143.727 9.86774 141.767 9.72614L140.275 9.61823L140.179 6.59332L140.084 3.5684H142.041C143.491 3.5684 144.215 3.73649 144.835 4.21721Z" fill="#00A551"/>
<path fill-rule="evenodd" clip-rule="evenodd" d="M80.5937 9.67814C75.37 10.3358 68.073 12.2485 65.1214 13.7335L63.8499 14.3734V17.3375V20.3016L65.9221 18.5151C70.6257 14.4608 77.0394 11.3024 83.5778 9.82104L84.904 9.52051L83.2462 9.53654C82.3344 9.54537 81.1408 9.60914 80.5937 9.67814Z" fill="#00A551"/>
</svg>
