<svg width="40" height="40" viewBox="0 0 40 40" fill="none" xmlns="http://www.w3.org/2000/svg">
<circle opacity="0.2" cx="20" cy="20" r="19.5" stroke="#112418"/>
<path d="M20.75 27.5H14.75C13.25 27.5 12.5 26.75 12.5 25.25V19.25C12.5 17.75 13.25 17 14.75 17H18.5V25.25C18.5 26.75 19.25 27.5 20.75 27.5Z" stroke="#0252A7" stroke-width="1.5" stroke-miterlimit="10" stroke-linecap="round" stroke-linejoin="round"/>
<path d="M18.5825 14C18.5225 14.225 18.5 14.4725 18.5 14.75V17H14.75V15.5C14.75 14.675 15.425 14 16.25 14H18.5825Z" stroke="#0252A7" stroke-width="1.5" stroke-miterlimit="10" stroke-linecap="round" stroke-linejoin="round"/>
<path d="M21.5 17V20.75" stroke="#0252A7" stroke-width="1.5" stroke-miterlimit="10" stroke-linecap="round" stroke-linejoin="round"/>
<path d="M24.5 17V20.75" stroke="#0252A7" stroke-width="1.5" stroke-miterlimit="10" stroke-linecap="round" stroke-linejoin="round"/>
<path d="M23.75 23.75H22.25C21.8375 23.75 21.5 24.0875 21.5 24.5V27.5H24.5V24.5C24.5 24.0875 24.1625 23.75 23.75 23.75Z" stroke="#0252A7" stroke-width="1.5" stroke-miterlimit="10" stroke-linecap="round" stroke-linejoin="round"/>
<path d="M15.5 20.75V23.75" stroke="#0252A7" stroke-width="1.5" stroke-miterlimit="10" stroke-linecap="round" stroke-linejoin="round"/>
<path d="M18.5 25.25V14.75C18.5 13.25 19.25 12.5 20.75 12.5H25.25C26.75 12.5 27.5 13.25 27.5 14.75V25.25C27.5 26.75 26.75 27.5 25.25 27.5H20.75C19.25 27.5 18.5 26.75 18.5 25.25Z" stroke="#0252A7" stroke-width="1.5" stroke-miterlimit="10" stroke-linecap="round" stroke-linejoin="round"/>
</svg>
