<svg width="20" height="20" viewBox="0 0 20 20" fill="none" xmlns="http://www.w3.org/2000/svg">
<path d="M16.4834 18.3417V14.625" stroke="#00A551" stroke-width="1.5" stroke-miterlimit="10" stroke-linecap="round" stroke-linejoin="round"/>
<path d="M0.833374 18.3333H19.1667" stroke="#0252A7" stroke-width="1.5" stroke-miterlimit="10" stroke-linecap="round" stroke-linejoin="round"/>
<path d="M16.5 9.07501C15.4833 9.07501 14.6666 9.89169 14.6666 10.9084V12.8C14.6666 13.8167 15.4833 14.6333 16.5 14.6333C17.5166 14.6333 18.3333 13.8167 18.3333 12.8V10.9084C18.3333 9.89169 17.5166 9.07501 16.5 9.07501Z" stroke="#00A551" stroke-width="1.5" stroke-miterlimit="10" stroke-linecap="round" stroke-linejoin="round"/>
<path d="M1.75 18.3333V5.02501C1.75 3.35001 2.58338 2.50833 4.24171 2.50833H9.43336C11.0917 2.50833 11.9167 3.35001 11.9167 5.02501V18.3333" stroke="#0252A7" stroke-width="1.5" stroke-miterlimit="10" stroke-linecap="round" stroke-linejoin="round"/>
<path d="M4.83337 6.875H8.95838" stroke="#0252A7" stroke-width="1.5" stroke-miterlimit="10" stroke-linecap="round" stroke-linejoin="round"/>
<path d="M4.83337 10H8.95838" stroke="#0252A7" stroke-width="1.5" stroke-miterlimit="10" stroke-linecap="round" stroke-linejoin="round"/>
<path d="M6.875 18.3333V15.2083" stroke="#0252A7" stroke-width="1.5" stroke-miterlimit="10" stroke-linecap="round" stroke-linejoin="round"/>
</svg>
