<svg width="150" height="152" viewBox="0 0 150 152" fill="none" xmlns="http://www.w3.org/2000/svg">
<path d="M145.279 72.3599C140.559 130.724 80.049 132.87 62.8831 115.704C93.7817 120.51 107.801 105.118 110.948 96.8213H92.0651V92.959H95.4983V88.2383H92.0651V84.376H95.4983V78.7971H90.3485V72.3599H145.279Z" fill="#00A551"/>
<path d="M13.9602 41.0321C45.5454 11.1634 78.3323 25.7258 89.9193 36.7406C31.1261 18.7164 10.9561 107.121 70.1785 127.72C117.556 144.199 142.561 110.268 150 91.2424C130.088 158.189 76.6157 156.473 48.292 147.032C-15.4974 116.299 -3.6349 59.9146 13.9602 41.0321Z" fill="#0252A7"/>
<path d="M146.567 50.044H107.514C99.3605 30.5893 69.921 -1.02469 17.3933 28.1575C64.7712 -28.1467 137.126 10.9917 146.567 50.044Z" fill="#00A551"/>
<rect x="74.0408" y="88.2383" width="3.43318" height="3.43318" fill="#00A551"/>
<rect x="52.5835" y="85.6635" width="2.57489" height="2.57489" fill="#00A551"/>
<rect x="57.7332" y="78.7971" width="3.43318" height="3.43318" fill="#0252A7"/>
<rect x="68.0327" y="78.7971" width="2.57489" height="2.57489" fill="#00A551"/>
<rect x="66.3162" y="83.9468" width="2.57489" height="2.57489" fill="#00A551"/>
<rect x="81.7654" y="84.8052" width="6.00807" height="6.00807" fill="#0252A7"/>
<rect x="77.4739" y="75.3639" width="4.29148" height="4.29148" fill="#00A551"/>
<rect x="72.3242" y="81.3719" width="4.29148" height="4.29148" fill="#0252A7"/>
</svg>
