<svg width="20" height="20" viewBox="0 0 20 20" fill="none" xmlns="http://www.w3.org/2000/svg">
<path d="M9.18325 16.25H6.24992C5.73325 16.25 5.27492 16.2333 4.86659 16.175C2.67492 15.9333 2.08325 14.9 2.08325 12.0833V7.91667C2.08325 5.1 2.67492 4.06667 4.86659 3.825C5.27492 3.76667 5.73325 3.75 6.24992 3.75H9.13325" stroke="#0252A7" stroke-width="1.5" stroke-linecap="round" stroke-linejoin="round"/>
<path d="M12.5166 3.75H13.7499C14.2666 3.75 14.7249 3.76667 15.1333 3.825C17.3249 4.06667 17.9166 5.1 17.9166 7.91667V12.0833C17.9166 14.9 17.3249 15.9333 15.1333 16.175C14.7249 16.2333 14.2666 16.25 13.7499 16.25H12.5166" stroke="#0252A7" stroke-width="1.5" stroke-linecap="round" stroke-linejoin="round"/>
<path d="M12.5 1.66666V18.3333" stroke="#0252A7" stroke-width="1.5" stroke-linecap="round" stroke-linejoin="round"/>
<path d="M9.24534 10H9.25283" stroke="#00A551" stroke-width="1.5" stroke-linecap="round" stroke-linejoin="round"/>
<path d="M5.91209 10H5.91957" stroke="#00A551" stroke-width="1.5" stroke-linecap="round" stroke-linejoin="round"/>
</svg>
