<svg width="20" height="20" viewBox="0 0 20 20" fill="none" xmlns="http://www.w3.org/2000/svg">
<path d="M10.4166 18.3334H3.39993C2.43327 18.3334 1.6416 17.5584 1.6416 16.6084V4.24176C1.6416 2.05843 3.2666 1.06676 5.25827 2.04176L8.95827 3.85843C9.75827 4.2501 10.4166 5.29176 10.4166 6.1751V18.3334Z" stroke="#0252A7" stroke-width="1.5" stroke-linecap="round" stroke-linejoin="round"/>
<path d="M18.3083 12.5501V15.7001C18.3083 17.5001 17.475 18.3334 15.675 18.3334H10.4166V8.68341L10.8083 8.76674L14.5583 9.60841L16.25 9.98341C17.35 10.2251 18.25 10.7917 18.3 12.3917C18.3083 12.4417 18.3083 12.4917 18.3083 12.5501Z" stroke="#0252A7" stroke-width="1.5" stroke-linecap="round" stroke-linejoin="round"/>
<path d="M4.58325 7.50009H7.47492" stroke="#00A551" stroke-width="1.5" stroke-linecap="round" stroke-linejoin="round"/>
<path d="M4.58325 10.8334H7.47492" stroke="#00A551" stroke-width="1.5" stroke-linecap="round" stroke-linejoin="round"/>
<path d="M14.5583 9.60842V12.2918C14.5583 13.3251 13.7167 14.1668 12.6833 14.1668C11.65 14.1668 10.8083 13.3251 10.8083 12.2918V8.76675L14.5583 9.60842Z" stroke="#0252A7" stroke-width="1.5" stroke-linecap="round" stroke-linejoin="round"/>
<path d="M18.3 12.3918C18.25 13.3751 17.4334 14.1668 16.4334 14.1668C15.4 14.1668 14.5583 13.3251 14.5583 12.2918V9.60843L16.25 9.98343C17.35 10.2251 18.25 10.7918 18.3 12.3918Z" stroke="#0252A7" stroke-width="1.5" stroke-linecap="round" stroke-linejoin="round"/>
</svg>
