<svg width="20" height="20" viewBox="0 0 20 20" fill="none" xmlns="http://www.w3.org/2000/svg">
<path d="M6.04175 5.83341H13.9584V4.16675C13.9584 2.50008 13.3334 1.66675 11.4584 1.66675H8.54175C6.66675 1.66675 6.04175 2.50008 6.04175 4.16675V5.83341Z" stroke="#0252A7" stroke-width="1.5" stroke-miterlimit="10" stroke-linecap="round" stroke-linejoin="round"/>
<path d="M13.3334 12.5V15.8333C13.3334 17.5 12.5001 18.3333 10.8334 18.3333H9.16675C7.50008 18.3333 6.66675 17.5 6.66675 15.8333V12.5H13.3334Z" stroke="#0252A7" stroke-width="1.5" stroke-miterlimit="10" stroke-linecap="round" stroke-linejoin="round"/>
<path d="M17.5 8.33325V12.4999C17.5 14.1666 16.6667 14.9999 15 14.9999H13.3333V12.4999H6.66667V14.9999H5C3.33333 14.9999 2.5 14.1666 2.5 12.4999V8.33325C2.5 6.66659 3.33333 5.83325 5 5.83325H15C16.6667 5.83325 17.5 6.66659 17.5 8.33325Z" stroke="#0252A7" stroke-width="1.5" stroke-miterlimit="10" stroke-linecap="round" stroke-linejoin="round"/>
<path d="M14.1666 12.5H13.1583H5.83325" stroke="#0252A7" stroke-width="1.5" stroke-miterlimit="10" stroke-linecap="round" stroke-linejoin="round"/>
<path d="M5.83325 9.16675H8.33325" stroke="#0252A7" stroke-width="1.5" stroke-miterlimit="10" stroke-linecap="round" stroke-linejoin="round"/>
</svg>
