<!DOCTYPE svg PUBLIC "-//W3C//DTD SVG 1.1//EN" "http://www.w3.org/Graphics/SVG/1.1/DTD/svg11.dtd">
<!-- Uploaded to: SVG Repo, www.svgrepo.com, Transformed by: SVG Repo Mixer Tools -->
<svg fill="#1254a5" width="169px" height="169px" viewBox="-102.4 -102.4 1228.80 1228.80" xmlns="http://www.w3.org/2000/svg" class="icon" stroke="#1254a5" stroke-width="0.01024">
<g id="SVGRepo_bgCarrier" stroke-width="0">
<rect x="-102.4" y="-102.4" width="1228.80" height="1228.80" rx="614.4" fill="#7ed0ec" strokewidth="0"/>
</g>
<g id="SVGRepo_tracerCarrier" stroke-linecap="round" stroke-linejoin="round"/>
<g id="SVGRepo_iconCarrier"> <path d="M732 120c0-4.4-3.6-8-8-8H300c-4.4 0-8 3.6-8 8v148h440V120zm120 212H172c-44.2 0-80 35.8-80 80v328c0 17.7 14.3 32 32 32h168v132c0 4.4 3.6 8 8 8h424c4.4 0 8-3.6 8-8V772h168c17.7 0 32-14.3 32-32V412c0-44.2-35.8-80-80-80zM664 844H360V568h304v276zm164-360c0 4.4-3.6 8-8 8h-40c-4.4 0-8-3.6-8-8v-40c0-4.4 3.6-8 8-8h40c4.4 0 8 3.6 8 8v40z"/> </g>
</svg>