<svg width="390" height="844" viewBox="0 0 390 844" fill="none" xmlns="http://www.w3.org/2000/svg">
<g clip-path="url(#clip0_366_8)">
<g opacity="0.04">
<path d="M470.266 849.713C469.555 849.518 398.115 830.011 314.001 794.875C264.652 774.257 220.658 752.38 183.255 729.837C136.65 701.766 100.252 672.625 75.0597 643.235C73.3241 641.212 71.6484 639.214 70.0379 637.25C66.7537 633.258 63.7246 629.394 60.9471 625.669C64.1263 623.563 67.5368 621.463 71.1662 619.377C72.7797 621.341 74.4502 623.329 76.1858 625.352C77.8371 627.278 79.5299 629.197 81.2785 631.115C106.185 658.556 140.829 685.723 184.381 711.954C221.787 734.497 265.778 756.374 315.13 776.992C399.241 812.133 470.684 831.64 471.398 831.83L470.269 849.713L470.266 849.713Z" fill="url(#paint0_linear_366_8)"/>
<path d="M468.002 885.659C467.288 885.464 395.844 865.957 311.737 830.821C262.381 810.204 218.394 788.317 180.988 765.784C134.385 737.713 97.9851 708.566 72.7925 679.177C63.7655 668.635 56.4078 658.985 50.6913 650.165C48.2136 646.344 46.0447 642.68 44.1854 639.164C46.4481 636.824 49.0159 634.525 51.8606 632.249C54.219 635.886 56.8523 639.662 59.7693 643.578C63.918 649.165 68.637 655.033 73.9244 661.208C99.1171 690.598 135.514 719.739 182.116 747.82C219.523 770.353 263.513 792.235 312.866 812.853C396.983 847.984 468.425 867.496 469.134 867.681L468.002 885.654L468.002 885.659Z" fill="url(#paint1_linear_366_8)"/>
<path d="M465.734 921.601C465.023 921.406 393.583 901.899 309.47 866.763C260.114 846.145 216.127 824.258 178.72 801.725C132.118 773.654 95.7208 744.508 70.5282 715.118C53.4263 695.166 42.3134 678.375 37.0245 664.417C35.6849 660.891 34.7175 657.542 34.1191 654.37C35.1004 651.685 36.4581 649.07 38.1763 646.501C39.4535 649.866 41.0692 653.386 43.0251 657.075C49.1761 668.718 58.7005 682.021 71.663 697.15C96.8557 726.54 133.256 755.681 179.858 783.752C217.264 806.295 261.255 828.172 310.605 848.79C394.715 883.931 466.155 903.437 466.867 903.628L465.734 921.601Z" fill="url(#paint2_linear_366_8)"/>
<path d="M463.474 957.452C462.763 957.257 391.319 937.75 307.209 902.614C257.856 881.997 213.866 860.114 176.459 837.576C129.857 809.5 93.457 780.359 68.2644 750.969C42.869 721.328 30.679 698.676 31.1419 681.914C31.1534 681.531 31.1708 681.149 31.1937 680.772L32.3227 662.889C32.2969 663.266 32.2825 663.649 32.2709 664.032C31.811 680.794 43.998 703.445 69.3934 733.087C94.5861 762.476 130.986 791.618 177.588 819.694C214.995 842.232 258.985 864.114 308.338 884.731C392.448 919.867 463.891 939.379 464.603 939.569L463.474 957.452Z" fill="url(#paint3_linear_366_8)"/>
<path d="M37.9947 572.906L39.1148 555.154C39.1734 554.254 39.2634 553.366 39.3959 552.502C43.8945 523.082 92.203 502.445 159.063 473.875C205.551 454.008 263.411 429.283 327.378 393.242C336.638 388.021 344.737 382.368 351.617 376.318C354.238 374.013 356.681 371.654 358.945 369.249C360.817 372.786 362.519 376.291 364.05 379.759C362.155 382.266 360.072 384.72 357.816 387.126C349.605 395.883 339.031 403.923 326.252 411.12C262.282 447.165 204.425 471.886 157.937 491.758C95.5817 518.394 49.3628 538.148 39.7657 564.547L39.7654 564.552C39.0745 566.465 38.5697 568.4 38.2698 570.385C38.1437 571.199 38.0506 572.046 37.9921 572.901L37.9947 572.906Z" fill="url(#paint4_linear_366_8)"/>
<path d="M35.732 608.828L36.854 591.005C36.9126 590.105 37.0085 589.218 37.141 588.353C37.4478 586.354 37.9532 584.409 38.651 582.482C39.6257 579.806 40.9769 577.201 42.6824 574.646C57.8045 552.018 100.796 533.66 156.805 509.726C203.299 489.86 261.153 465.139 325.126 429.093C341.432 419.9 354.144 409.35 362.95 397.69C363.528 396.921 364.091 396.151 364.64 395.376C365.874 393.617 367.028 391.832 368.1 390.011C369.27 393.359 370.266 396.68 371.095 399.954C369.897 402.68 368.527 405.344 366.991 407.946C365.916 409.776 364.751 411.581 363.51 413.349C354.674 425.922 341.382 437.266 323.993 447.067C260.027 483.113 202.166 507.833 155.679 527.7C105.847 548.99 66.323 565.879 47.5562 585.283C45.243 587.675 43.2441 590.104 41.5817 592.586C39.8638 595.151 38.5058 597.77 37.5216 600.455C36.8213 602.377 36.3177 604.338 36.0112 606.332C35.8845 607.157 35.7982 607.989 35.7401 608.839L35.732 608.828Z" fill="url(#paint5_linear_366_8)"/>
<path d="M33.4632 644.795L34.5895 626.952C34.6423 626.052 34.7382 625.164 34.8706 624.3C35.1774 622.3 35.6836 620.345 36.381 618.423L36.3813 618.418C37.3626 615.732 38.7229 613.123 40.4407 610.559C42.1129 608.062 44.1184 605.624 46.4501 603.217C48.6997 600.896 51.2551 598.606 54.0846 596.34C74.8546 579.72 110.709 564.399 154.538 545.673C201.025 525.806 258.883 501.08 322.852 465.04C340.238 455.239 353.533 443.895 362.369 431.322C365.391 427.019 367.926 422.54 369.969 417.882C371.162 415.181 372.187 412.412 373.045 409.597C373.531 412.747 373.846 415.859 373.994 418.925C373.475 421.844 372.783 424.716 371.928 427.526C369.59 435.21 366.017 442.476 361.234 449.29C352.401 461.863 339.106 473.207 321.72 483.008C257.751 519.054 199.893 543.774 153.4 563.641C115.404 579.876 83.3988 593.547 62.0274 607.727C58.7594 609.887 55.7454 612.065 52.9937 614.266C50.1431 616.541 47.5809 618.845 45.3182 621.186C42.9901 623.582 40.9814 626.026 39.3066 628.517C37.5887 631.082 36.2307 633.701 35.2491 636.391C34.5487 638.313 34.0458 640.264 33.739 642.263C33.6123 643.088 33.5191 643.935 33.4607 644.789L33.4632 644.795Z" fill="url(#paint6_linear_366_8)"/>
<path d="M31.2127 680.535L32.3219 662.899C32.3805 661.999 32.4764 661.111 32.603 660.246C32.9098 658.247 33.416 656.292 34.1192 654.37C35.1005 651.684 36.4582 649.07 38.1764 646.501C39.8486 644.004 41.8599 641.566 44.1887 639.159C46.4514 636.819 49.0191 634.52 51.8639 632.244C54.6282 630.029 57.6638 627.838 60.947 625.669C64.1262 623.563 67.5367 621.463 71.1661 619.377C91.966 607.38 119.948 595.415 152.27 581.615C198.758 561.748 256.619 537.027 320.585 500.981C337.973 491.19 351.266 479.836 360.102 467.264C368.386 455.476 373.033 442.324 373.935 427.982L372.806 445.864C371.902 460.202 367.257 473.359 358.976 485.147C350.14 497.719 336.845 509.063 319.459 518.864C255.49 554.91 197.632 579.631 151.144 599.497C124.328 610.957 100.497 621.141 81.2781 631.119C77.3342 633.173 73.5787 635.214 70.0374 637.255C66.3859 639.364 62.9604 641.468 59.7721 643.578C56.4882 645.758 53.4556 647.95 50.6913 650.165C47.8436 652.44 45.282 654.734 43.0219 657.08C40.696 659.486 38.6876 661.925 37.0213 664.422C35.3063 666.987 33.9483 669.606 32.9729 672.292C32.282 674.204 31.7769 676.144 31.4769 678.129C31.3584 678.919 31.268 679.726 31.2124 680.54L31.2127 680.535Z" fill="url(#paint7_linear_366_8)"/>
<path d="M379.665 329.129C378.884 312.722 373.315 295.053 363.061 276.518C352.885 258.12 337.782 238.259 318.172 217.463C285.402 182.711 239.458 144.629 181.617 104.254C83.3012 35.6262 -16.808 -16.599 -17.8107 -17.1171L-16.6846 -35C-15.6845 -34.4872 84.427 17.7483 182.746 86.3717C240.581 126.746 286.525 164.833 319.301 199.58C338.909 220.371 354.014 240.237 364.187 258.635C375.751 279.538 381.36 299.33 380.861 317.468C380.833 318.401 380.793 319.322 380.734 320.237C380.542 323.255 380.19 326.221 379.665 329.129Z" fill="url(#paint8_linear_366_8)"/>
<path d="M377.397 365.005C377.251 361.94 376.933 358.827 376.448 355.677C375.969 352.523 375.316 349.322 374.502 346.09C371.778 335.282 367.198 324.039 360.79 312.465C350.62 294.062 335.512 274.195 315.905 253.404C283.131 218.658 237.187 180.576 179.35 140.201C81.0306 71.5726 -19.0815 19.3471 -20.081 18.8242L-18.949 0.855877C-17.9489 1.36872 82.1655 53.6044 180.481 122.233C238.322 162.603 284.266 200.689 317.037 235.436C336.644 256.227 351.749 276.093 361.925 294.491C370.258 309.566 375.502 324.057 377.587 337.77C378.066 340.899 378.379 343.996 378.528 347.042C378.63 349.16 378.654 351.252 378.597 353.324C378.571 354.257 378.529 355.178 378.469 356.093C378.277 359.116 377.921 362.091 377.396 365.01L377.397 365.005Z" fill="url(#paint9_linear_366_8)"/>
<path d="M375.129 400.957C374.983 397.896 374.665 394.783 374.18 391.634C373.696 388.459 373.042 385.238 372.221 381.985C371.392 378.706 370.393 375.395 369.227 372.037C368.057 368.68 366.715 365.28 365.205 361.848C363.261 357.422 361.031 352.941 358.523 348.401C348.347 330.003 333.242 310.141 313.635 289.346C280.864 254.599 234.92 216.517 177.08 176.142C78.7635 107.514 -21.3515 55.2885 -22.3509 54.7656L-21.2161 36.7975C-20.2159 37.3103 79.8955 89.5458 178.211 158.174C236.052 198.544 281.996 236.631 314.767 271.377C334.38 292.168 349.479 312.035 359.655 330.433C364.12 338.511 367.7 346.417 370.378 354.126C371.543 357.463 372.532 360.758 373.353 364.011C374.177 367.27 374.831 370.486 375.315 373.656C375.801 376.805 376.116 379.918 376.264 382.983C376.366 385.102 376.39 387.194 376.333 389.266C376.304 390.198 376.259 391.12 376.205 392.035C376.012 395.067 375.657 398.038 375.126 400.956L375.129 400.957Z" fill="url(#paint10_linear_366_8)"/>
<path d="M372.809 445.859C372.869 444.939 372.912 444.013 372.94 443.086C372.996 441.024 372.976 438.952 372.871 436.848C372.725 433.788 372.41 430.675 371.931 427.526C371.447 424.352 370.793 421.135 369.971 417.882C369.148 414.609 368.152 411.293 366.986 407.94C365.809 404.562 364.462 401.141 362.948 397.689C361.412 394.2 359.703 390.679 357.82 387.121C357.313 386.167 356.795 385.213 356.265 384.252C354.816 381.638 353.27 378.987 351.623 376.319C341.701 360.175 328.199 343.024 311.377 325.192C278.607 290.445 232.662 252.364 174.822 211.989C76.5059 143.36 -23.6033 91.1351 -24.6056 90.6121L-23.4799 72.7342C-22.4798 73.247 77.632 125.477 175.951 194.106C233.785 234.481 279.73 272.562 312.506 307.309C332.113 328.11 347.218 347.971 357.394 366.37C357.924 367.33 358.442 368.285 358.948 369.244C360.821 372.781 362.523 376.286 364.054 379.755C365.574 383.207 366.924 386.628 368.098 390.006C369.268 393.354 370.263 396.674 371.092 399.948C371.914 403.201 372.568 406.413 373.052 409.593C373.537 412.742 373.852 415.854 374 418.92C374.102 421.038 374.126 423.131 374.069 425.203C374.041 426.125 374.001 427.052 373.941 427.972L372.812 445.855L372.809 445.859Z" fill="url(#paint11_linear_366_8)"/>
</g>
</g>
<defs>
<linearGradient id="paint0_linear_366_8" x1="477.179" y1="748.663" x2="54.5129" y2="719.761" gradientUnits="userSpaceOnUse">
<stop stop-color="#0252A7"/>
<stop offset="1" stop-color="#00A551"/>
</linearGradient>
<linearGradient id="paint1_linear_366_8" x1="475.657" y1="773.706" x2="37.0362" y2="743.712" gradientUnits="userSpaceOnUse">
<stop stop-color="#0252A7"/>
<stop offset="1" stop-color="#00A551"/>
</linearGradient>
<linearGradient id="paint2_linear_366_8" x1="474.102" y1="799.242" x2="26.3065" y2="768.621" gradientUnits="userSpaceOnUse">
<stop stop-color="#0252A7"/>
<stop offset="1" stop-color="#00A551"/>
</linearGradient>
<linearGradient id="paint3_linear_366_8" x1="472.495" y1="825.529" x2="23.3015" y2="794.812" gradientUnits="userSpaceOnUse">
<stop stop-color="#0252A7"/>
<stop offset="1" stop-color="#00A551"/>
</linearGradient>
<linearGradient id="paint4_linear_366_8" x1="357.064" y1="481.922" x2="45.5788" y2="460.622" gradientUnits="userSpaceOnUse">
<stop stop-color="#0252A7"/>
<stop offset="1" stop-color="#00A551"/>
</linearGradient>
<linearGradient id="paint5_linear_366_8" x1="363.537" y1="510.477" x2="43.8554" y2="488.616" gradientUnits="userSpaceOnUse">
<stop stop-color="#0252A7"/>
<stop offset="1" stop-color="#00A551"/>
</linearGradient>
<linearGradient id="paint6_linear_366_8" x1="365.83" y1="538.313" x2="42.163" y2="516.18" gradientUnits="userSpaceOnUse">
<stop stop-color="#0252A7"/>
<stop offset="1" stop-color="#00A551"/>
</linearGradient>
<linearGradient id="paint7_linear_366_8" x1="364.637" y1="565.343" x2="40.5085" y2="543.179" gradientUnits="userSpaceOnUse">
<stop stop-color="#0252A7"/>
<stop offset="1" stop-color="#00A551"/>
</linearGradient>
<linearGradient id="paint8_linear_366_8" x1="391.594" y1="161.432" x2="-28.1542" y2="132.729" gradientUnits="userSpaceOnUse">
<stop stop-color="#0252A7"/>
<stop offset="1" stop-color="#00A551"/>
</linearGradient>
<linearGradient id="paint9_linear_366_8" x1="389.329" y1="197.3" x2="-30.4195" y2="168.597" gradientUnits="userSpaceOnUse">
<stop stop-color="#0252A7"/>
<stop offset="1" stop-color="#00A551"/>
</linearGradient>
<linearGradient id="paint10_linear_366_8" x1="387.065" y1="233.245" x2="-32.6867" y2="204.541" gradientUnits="userSpaceOnUse">
<stop stop-color="#0252A7"/>
<stop offset="1" stop-color="#00A551"/>
</linearGradient>
<linearGradient id="paint11_linear_366_8" x1="384.588" y1="273.652" x2="-35.2558" y2="244.942" gradientUnits="userSpaceOnUse">
<stop stop-color="#0252A7"/>
<stop offset="1" stop-color="#00A551"/>
</linearGradient>
<clipPath id="clip0_366_8">
<rect width="390" height="844" rx="28" fill="white"/>
</clipPath>
</defs>
</svg>
