<svg width="150" height="22" viewBox="0 0 150 22" fill="none" xmlns="http://www.w3.org/2000/svg">
<path fill-rule="evenodd" clip-rule="evenodd" d="M4.65917 0.841352C2.70792 1.48525 1.73181 2.2243 0.915833 3.67621C-1.07122 7.21199 0.759999 10.4427 5.82494 12.3369C7.77419 13.066 9.14222 14.253 9.14222 15.2156C9.14222 15.4728 8.77584 16.0494 8.32823 16.4971C7.66113 17.1645 7.18534 17.311 5.68734 17.311C4.68271 17.311 3.16946 17.0766 2.3253 16.7898C1.48115 16.5033 0.7474 16.3167 0.694681 16.3754C0.52459 16.565 -0.0984149 19.7858 0.0133215 19.8975C0.0726711 19.9569 0.920144 20.2182 1.89659 20.4778C8.01557 22.1067 13.4525 19.494 13.4525 14.9244C13.4525 12.0422 12.0102 10.326 8.44859 8.97092C6.2752 8.14401 4.50035 6.77167 4.50035 5.9179C4.50035 5.63342 4.83622 5.08368 5.24636 4.69675C5.89357 4.08601 6.27785 4.01374 8.14753 4.15134C9.33286 4.23854 10.6273 4.41493 11.0242 4.54324C11.6495 4.74517 11.7931 4.6059 12.1001 3.50048C12.5881 1.74187 12.5547 1.47132 11.7974 1.06615C10.7195 0.488905 6.1618 0.345667 4.65917 0.841352ZM37.4437 0.717684C34.7063 1.37053 32.6831 3.76341 32.6831 6.34827C32.6831 9.0243 34.4331 10.884 38.318 12.3369C40.2673 13.066 41.6353 14.253 41.6353 15.2156C41.6353 15.4728 41.2689 16.0494 40.8213 16.4971C40.1399 17.1787 39.6953 17.3087 38.0859 17.2964C37.0292 17.2885 35.5697 17.07 34.8426 16.8114C34.1158 16.5524 33.4321 16.447 33.3237 16.5773C33.0631 16.8899 32.2756 19.6684 32.4116 19.7961C32.4696 19.8508 33.3277 20.1346 34.3184 20.4267C40.2384 22.1737 45.9403 19.5428 45.9443 15.0624C45.9469 12.0193 44.7026 10.6065 40.2281 8.57139C37.0756 7.13771 36.4288 6.18878 37.6847 4.83966C38.4341 4.03462 38.634 3.98987 40.8064 4.1404C42.0829 4.22893 43.3707 4.40266 43.6681 4.52666C44.0716 4.69509 44.303 4.48223 44.5799 3.68781C45.3143 1.58106 45.1253 1.157 43.2769 0.760455C41.4082 0.359597 39.0183 0.342025 37.4437 0.717684ZM89.4903 0.719344C87.7416 1.13579 85.5755 2.60128 84.5756 4.04424C83.5819 5.47792 82.3571 8.65626 82.6286 9.09558C82.7165 9.23749 83.747 9.35354 84.9191 9.35354H87.0497L87.4349 7.82371C88.5079 3.56248 93.0702 2.52171 95.4999 5.98355C96.4554 7.34494 96.5088 7.59129 96.5088 10.6254C96.5088 13.2335 96.3855 14.0392 95.8457 14.9553C94.846 16.6529 93.5456 17.4768 91.8669 17.4768C89.3467 17.4768 87.5394 15.5126 87.167 12.3698C86.9409 10.46 86.8676 10.4295 84.0686 11.0757L82.3531 11.4716L82.566 12.8025C83.5371 18.8747 88.8766 22.2022 94.8749 20.4731C97.7299 19.6499 99.9875 17.2792 100.81 14.2404C101.579 11.3993 101.392 7.75177 100.369 5.6384C98.4348 1.64274 94.0115 -0.357569 89.4903 0.719344ZM15.1103 0.998179C15.1103 1.15998 16.4525 3.81513 18.0931 6.89799L21.0758 12.5034L21.0771 16.565L21.0784 20.6267H23.2336H25.3888L25.3931 16.565L25.3974 12.5034L28.5429 6.90993C30.273 3.83337 31.6884 1.18485 31.6884 1.02471C31.6884 0.864233 30.6616 0.732933 29.407 0.732933H27.1251L25.9083 3.6341C25.2392 5.22991 24.4504 7.09958 24.156 7.78956C23.8612 8.47954 23.5038 8.92715 23.3612 8.78425C23.2187 8.64135 22.3795 6.80881 21.4965 4.71168L19.8911 0.898714L17.5009 0.801233C16.1859 0.747851 15.1103 0.836376 15.1103 0.998179ZM50.0072 0.953425L48.9297 1.10661V10.8665V20.6267H51.0848H53.24V17.1453V13.6638H54.6624C55.4445 13.6638 56.9551 13.4371 58.0188 13.1602C61.5045 12.2521 62.8536 10.7614 63.0877 7.55979C63.2926 4.75644 62.3304 2.89737 60.0847 1.75647C58.6948 1.05057 57.9687 0.929213 54.7797 0.869532C52.7476 0.831734 50.5997 0.869208 50.0072 0.953425ZM67.2485 0.953748L66.1709 1.10661V7.01438V12.9225L69.5694 11.8459C71.4384 11.2537 74.3658 10.5001 76.074 10.1712C78.9035 9.62576 79.2354 9.48185 79.8027 8.55116C81.2901 6.11252 80.0179 2.77304 77.1124 1.48824C75.9453 0.971994 69.5604 0.626165 67.2485 0.953748ZM105.958 10.8456V20.6267H112.092H118.226V18.9791V17.3316L114.164 17.2384L110.103 17.1453V14.6585V12.1718L113.667 12.0777L117.231 11.9835V10.3482V8.71296L113.667 8.6188L110.103 8.52464L110.001 6.73652C109.945 5.75311 110.052 4.7959 110.238 4.60923C110.437 4.41095 112.029 4.30021 114.07 4.34265L117.563 4.41559V2.7402V1.06449H111.761H105.958V10.8456ZM120.298 1.27206C119.98 1.40965 119.884 3.68549 119.884 11.0389V20.6267H121.851C124.195 20.6267 124.152 20.7089 124.07 16.382C124.037 14.6854 124.112 13.1347 124.235 12.9351C124.574 12.3873 127.173 12.8479 127.912 13.5869C128.262 13.9367 128.948 15.6264 129.439 17.3419L130.329 20.4609L132.441 20.5607L134.553 20.6605L134.33 19.7318C133.177 14.9201 132.644 13.4762 131.589 12.3084C130.544 11.1523 130.511 11.0505 131.122 10.8565C131.484 10.7418 132.236 10.1277 132.794 9.4918C133.668 8.49679 133.81 8.07736 133.81 6.4799C133.81 4.20174 132.984 2.71534 131.235 1.84565C130.232 1.34731 129.114 1.21734 125.355 1.16131C122.802 1.12351 120.526 1.17325 120.298 1.27206ZM136.545 1.28398C136.227 1.4123 136.13 3.67919 136.13 11.0389V20.6267H138.109H140.087L140.181 17.0939L140.275 13.5611L142.185 13.4586C145.022 13.3061 146.632 12.7656 148.042 11.4915C150.304 9.44771 150.669 5.55384 148.806 3.33967C147.263 1.5058 145.789 1.07644 141.104 1.09799C138.824 1.10827 136.773 1.19214 136.545 1.28398ZM129.085 4.9126C130.129 6.07572 130.086 7.82273 128.987 8.84095C128.386 9.39731 127.66 9.65593 126.468 9.73717C125.547 9.7995 124.658 9.76733 124.494 9.66521C124.329 9.56342 124.126 8.2952 124.044 6.84694C123.903 4.36088 123.936 4.20174 124.625 3.98622C126.01 3.55353 128.289 4.027 129.085 4.9126ZM57.9074 5.01771C60.152 7.26238 58.0993 10.5717 54.6408 10.2849L53.4057 10.1824L53.3079 7.55913C53.2542 6.11651 53.2867 4.73655 53.3805 4.49219C53.4919 4.20174 54.1355 4.04855 55.2446 4.04855C56.6743 4.04855 57.0891 4.19941 57.9074 5.01771ZM74.3903 4.26108C74.8081 4.37282 75.377 4.90399 75.6545 5.44112C76.8051 7.6659 75.0955 9.68146 72.0561 9.68378L70.4812 9.68511V6.86683V4.04855L72.0561 4.0532C72.9225 4.05552 73.9729 4.14901 74.3903 4.26108ZM144.835 4.70637C145.882 5.53031 146.212 6.78128 145.75 8.17981C145.277 9.61382 143.727 10.4354 141.767 10.2919L140.275 10.1824L140.179 7.1155L140.084 4.04855H142.042C143.491 4.04855 144.215 4.21898 144.835 4.70637ZM80.5938 10.2431C75.3701 10.9099 68.0731 12.8492 65.1215 14.3548L63.8499 15.0037V18.009V21.0142L65.9222 19.2029C70.6257 15.0922 77.0395 11.89 83.5779 10.388L84.9041 10.0833L83.2463 10.0996C82.3345 10.1085 81.1409 10.1732 80.5938 10.2431ZM76.6161 13.388C75.7049 13.7514 74.9158 14.0922 74.8624 14.1456C74.7835 14.2245 75.4871 16.996 76.3604 20.0464C76.4984 20.5275 76.9208 20.6267 78.8312 20.6267C80.9801 20.6267 81.1217 20.5822 80.9267 19.9678C80.8117 19.6054 80.3614 18.0139 79.9261 16.4317C78.9009 12.7053 78.7275 12.5458 76.6161 13.388ZM68.3343 18.2228C65.6493 20.3932 65.6457 20.6267 68.2985 20.6267H70.4812V18.6373C70.4812 17.5431 70.4364 16.6479 70.3817 16.6479C70.3273 16.6479 69.4059 17.3565 68.3343 18.2228Z" fill="#021223"/>
</svg>
